<?xml version="1.0" encoding="UTF-8" standalone="no"?>
<!-- Created with Inkscape (http://www.inkscape.org/) -->

<svg
   xmlns:dc="http://purl.org/dc/elements/1.1/"
   xmlns:cc="http://creativecommons.org/ns#"
   xmlns:rdf="http://www.w3.org/1999/02/22-rdf-syntax-ns#"
   xmlns:svg="http://www.w3.org/2000/svg"
   xmlns="http://www.w3.org/2000/svg"
   version="1.1"
   width="822.90802"
   height="316.69"
   viewBox="0 0 822.90801 316.68999"
   id="Ebene_1"
   xml:space="preserve"><metadata
     id="metadata19"><rdf:RDF><cc:Work
         rdf:about=""><dc:format>image/svg+xml</dc:format><dc:type
           rdf:resource="http://purl.org/dc/dcmitype/StillImage" /><dc:title></dc:title></cc:Work></rdf:RDF></metadata><defs
     id="defs17" /><g
     transform="translate(-9.4910002,-125.17901)"
     id="g3"><g
       id="g5"><path
         d="m 821.564,213.668 c -16.009,-4.688 -34.238,-8.002 -52.742,-8.002 -64.611,0 -104.363,41.688 -104.363,100.222 0,56.883 35.057,91.676 94.149,91.676 22.372,0 45.289,-4.135 63.791,-11.6 v -88.902 h -35.898 v 64.888 c -7.183,2.209 -14.912,3.305 -23.748,3.305 -37.832,0 -59.362,-23.191 -59.362,-62.672 0,-41.706 26.507,-64.886 63.224,-64.886 17.411,0 34.518,3.585 49.432,9.377 l 5.517,-33.406 z m -200.175,-5.241 h -35.905 v 186.38 h 35.905 V 208.427 z M 500.168,338.201 c 0,16.842 -11.867,27.883 -35.339,27.883 -8.289,0 -15.187,-0.553 -19.603,-1.104 v -52.186 c 3.856,-0.273 12.98,-0.273 15.73,-0.273 23.472,0 39.212,7.452 39.212,25.68 m -3.041,-78.972 c 0,16.566 -12.699,26.511 -37.266,26.511 -5.802,0 -10.219,0 -14.635,-0.279 v -48.596 c 6.346,-0.28 13.521,-0.551 20.981,-0.551 22.645,0 30.92,9.114 30.92,22.915 m 41.426,78.138 c 0,-18.773 -11.041,-36.998 -33.137,-41.688 v -0.561 c 17.67,-6.897 29.541,-23.19 29.541,-41.689 0,-29.823 -22.365,-46.116 -62.668,-46.116 -22.918,0 -47.227,0.554 -62.963,1.388 v 186.105 c 23.466,0 43.072,0.549 54.4,0.549 56.319,0 74.827,-30.925 74.827,-57.988"
         id="path7" /><path
         d="M 19.494,431.869"
         id="path9" /></g><polygon
       points="48.216,369.021 19.491,369.021 19.491,431.869 298.778,431.869 298.778,369.021 269.49,369.021 269.49,397.734 48.216,397.734 "
       id="polygon11" /><polygon
       points="48.216,169.311 269.49,169.311 269.49,197.744 298.778,197.744 298.778,135.179 19.491,135.179 19.491,197.744 48.216,197.744 "
       id="polygon13" /></g></svg>