<?xml version="1.0" ?>
<!DOCTYPE svg  PUBLIC '-//W3C//DTD SVG 1.1//EN'  'http://www.w3.org/Graphics/SVG/1.1/DTD/svg11.dtd'>
<!-- Uploaded to: SVG Repo, www.svgrepo.com, Generator: SVG Repo Mixer Tools -->
<svg width="800px" height="800px" viewBox="0 0 512 512" version="1.1" xml:space="preserve" xmlns="http://www.w3.org/2000/svg" xmlns:xlink="http://www.w3.org/1999/xlink">
<g id="file__x2C__png__x2C__image__x2C_">
<g id="Layer_48">
<g>
<g>
<polygon points="107.08,25.47 349.084,25.47 420.61,97.84       420.61,447.873 107.08,447.873     " style="fill-rule:evenodd;clip-rule:evenodd;fill:#FFFFFF;"/>
<path d="M420.61,454.732H107.08c-3.791,0-6.86-3.068-6.86-6.859V25.47c0-3.79,3.069-6.86,6.86-6.86      h242.004c1.836,0,3.589,0.734,4.883,2.037l71.521,72.371c1.271,1.285,1.978,3.015,1.978,4.823v350.033      C427.466,451.664,424.401,454.732,420.61,454.732z M113.939,441.014h299.807V100.658L346.221,32.33H113.939V441.014z" style="fill:#4C8CF9;"/>
</g>
<g>
<rect height="105.467" style="fill-rule:evenodd;clip-rule:evenodd;fill:#4C8CF9;" width="313.531" x="129.985" y="177.75"/>
</g>
<g>
<path d="M212.433,258.463h-11.187v-9.82h11.187V258.463z M234.807,238.149v20.313H223.62v-55.962h22.112      c6.392,0,11.453,1.615,15.05,4.845c3.593,3.363,5.46,7.667,5.46,13.045c0,5.382-1.867,9.687-5.46,12.917      c-3.598,3.226-8.659,4.841-15.05,4.841H234.807z M234.807,229.541h10.925c3.061,0,5.46-0.94,7.057-2.556      c1.597-1.749,2.395-3.9,2.395-6.594c0-2.689-0.798-4.841-2.395-6.589c-1.597-1.748-3.864-2.689-7.057-2.689h-10.925V229.541z       M319.25,258.463h-11.054l-22.379-38.205h-0.266v38.205h-11.055v-55.962h11.055l22.378,38.208h0.267v-38.208h11.054V258.463z       M372.261,250.795c-1.729,2.29-4.263,4.17-7.727,5.918c-3.465,1.75-7.86,2.556-13.184,2.556c-6.795,0-12.389-2.152-16.651-6.322      c-4.263-4.304-6.392-9.819-6.392-16.68V224.7c0-6.86,2-12.375,6.125-16.551c4.13-4.304,9.457-6.452,15.982-6.452      c6.662,0,11.856,1.611,15.454,4.974c3.593,3.363,5.461,7.667,5.461,13.05v0.266h-10.526c-0.129-2.955-1.064-5.378-2.795-6.993      c-1.602-1.748-4.129-2.689-7.328-2.689c-3.459,0-6.125,1.345-8.254,4.034c-1.996,2.693-3.065,6.052-3.065,10.223v11.705      c0,4.304,1.069,7.668,3.198,10.361c2.129,2.689,5.061,4.033,8.791,4.033c2.529,0,4.662-0.271,6.126-0.808      c1.597-0.537,2.795-1.211,3.593-2.019v-10.356h-9.719v-7.801h20.91V250.795z" style="fill:#FEFEFE;"/>
</g>
<g>
<path d="M263.499,146.493c-14.005,0-26.183-5.08-32.579-13.591c-2.276-3.028-1.666-7.328,1.367-9.604      c3.029-2.285,7.328-1.666,9.604,1.363c3.763,5.006,12.041,8.112,21.608,8.112c0.009,0,0.018,0,0.027,0      c9.682-0.004,18.629-3.262,22.264-8.108c2.275-3.033,6.58-3.648,9.608-1.372c3.028,2.271,3.644,6.571,1.372,9.604      c-6.282,8.378-19.02,13.591-33.24,13.596C263.517,146.493,263.508,146.493,263.499,146.493z" style="fill:#4C8CF9;"/>
</g>
<g>
<path d="M143.976,233.308c-0.028,0-0.05,0-0.078,0c-41.719-0.454-66.452-11.352-73.508-32.4      c-9.2-27.43,17.064-62.675,32.491-74.596c3.005-2.308,7.31-1.771,9.627,1.234c2.317,2.996,1.762,7.305-1.234,9.622      c-12.88,9.957-34.396,39.934-27.875,59.38c6.227,18.565,36.419,22.773,60.651,23.039c3.786,0.042,6.823,3.148,6.782,6.933      C150.79,230.284,147.729,233.308,143.976,233.308z" style="fill:#4C8CF9;"/>
</g>
<g>
<polygon points="349.084,97.84 420.61,97.84 349.084,25.47     " style="fill-rule:evenodd;clip-rule:evenodd;fill:#D4E4FF;"/>
<path d="M420.61,104.7h-71.526c-3.79,0-6.859-3.07-6.859-6.86V25.47c0-2.781,1.68-5.291,4.253-6.346      c2.579-1.061,5.534-0.45,7.489,1.523l71.521,72.371c1.945,1.969,2.52,4.915,1.45,7.466      C425.869,103.039,423.373,104.7,420.61,104.7z M355.944,90.98h48.239l-48.239-48.809V90.98z" style="fill:#4C8CF9;"/>
</g>
<g>
<path d="M239.345,493.391c-0.376,0-0.757-0.027-1.143-0.092l-22.507-3.768      c-3.309-0.555-5.727-3.414-5.727-6.768v-34.891c0-3.791,3.069-6.859,6.86-6.859c3.79,0,6.86,3.068,6.86,6.859v29.082      l16.78,2.809c3.74,0.627,6.259,4.16,5.635,7.9C245.543,491.02,242.635,493.391,239.345,493.391z" style="fill:#4C8CF9;"/>
</g>
<g>
<path d="M325.251,493.391c-0.376,0-0.752-0.027-1.138-0.092l-22.511-3.768      c-3.305-0.555-5.727-3.414-5.727-6.768v-34.891c0-3.791,3.069-6.859,6.859-6.859s6.859,3.068,6.859,6.859v29.082l16.785,2.809      c3.735,0.627,6.259,4.16,5.631,7.9C331.45,491.02,328.546,493.391,325.251,493.391z" style="fill:#4C8CF9;"/>
</g>
<g>
<path d="M290.883,65.289c6.259-1.753,13.184,0.808,16.51,6.86      c4.13,6.993,1.734,16.143-5.322,20.176c-7.062,4.038-15.987,1.615-19.979-5.378c-3.198-5.653-2.4-12.38,1.464-17.088      c1.33,1.886,3.73,2.423,5.727,1.349C291.277,69.997,292.076,67.304,290.883,65.289L290.883,65.289z" style="fill-rule:evenodd;clip-rule:evenodd;fill:#4C8CF9;"/>
</g>
<g>
<path d="M228.813,65.289c6.259-1.753,13.188,0.808,16.652,6.86      c3.992,6.993,1.597,16.143-5.465,20.176c-6.924,4.038-15.982,1.615-19.979-5.378c-3.193-5.653-2.395-12.38,1.468-17.088      c1.331,1.886,3.859,2.423,5.727,1.349C229.346,69.997,230.011,67.304,228.813,65.289L228.813,65.289z" style="fill-rule:evenodd;clip-rule:evenodd;fill:#4C8CF9;"/>
</g>
<g>
<path d="M208.702,302.32h15.716v16.008h15.716V302.32h15.854v16.008      h15.716V302.32h15.849v16.008h15.716V302.32h15.716v16.008h-15.716v15.873h15.716v15.871h-15.716v16.01h15.716v15.877h-15.716      v16.01h15.716v15.871h-15.716v-15.871h-15.716v15.871h-15.849v-15.871h-15.716v15.871h-15.854v-15.871h-15.716v15.871h-15.716      v-15.871h15.716v-16.01h-15.716v-15.877h15.716v-16.01h-15.716v-15.871h15.716v-15.873h-15.716V302.32z M271.703,318.328v15.873      h15.849v-15.873H271.703z M287.552,334.201v15.871h15.716v-15.871H287.552z M240.134,318.328v15.873h15.854v-15.873H240.134z       M255.987,334.201v15.871h15.716v-15.871H255.987z M271.703,350.072v16.01h15.849v-16.01H271.703z M287.552,366.082v15.877      h15.716v-15.877H287.552z M255.987,397.969v-16.01h-15.854v16.01H255.987z M240.134,381.959v-15.877h-15.716v15.877H240.134z       M287.552,397.969v-16.01h-15.849v16.01H287.552z M271.703,381.959v-15.877h-15.716v15.877H271.703z M255.987,366.082v-16.01      h-15.854v16.01H255.987z M240.134,350.072v-15.871h-15.716v15.871H240.134z" style="fill-rule:evenodd;clip-rule:evenodd;fill:#4C8CF9;"/>
</g>
</g>
</g>
</g>
<g id="Layer_1"/>
</svg>